<svg height=".3in" viewBox="0 0 24 24" width=".3in" xmlns="http://www.w3.org/2000/svg"><path d="m12 2.2h4.9c3.2.2 4.7 1.7 4.9 5v9.7c-.2 3.2-1.7 4.7-4.9 4.9h-9.7c-3.3-.2-4.8-1.7-5-5v-9.6c.2-3.3 1.7-4.8 5-5zm0-2.2h-4.9c-4.4.3-6.8 2.7-7 7.1-.1 1.2-.1 1.6-.1 4.9s0 3.7.1 4.9c.2 4.4 2.6 6.8 7 7h9.8c4.4-.2 6.8-2.6 7-7 .1-1.2.1-1.6.1-4.9s0-3.7-.1-4.9c-.2-4.4-2.6-6.8-7-7zm0 5.8a6.2 6.2 0 1 0 6.2 6.2 6.2 6.2 0 0 0 -6.2-6.2zm0 10.2a4 4 0 1 1 4-4 4 4 0 0 1 -4 4zm6.4-11.8a1.4 1.4 0 0 0 -1.4 1.4 1.4 1.4 0 0 0 2.8 0 1.4 1.4 0 0 0 -1.4-1.4z" fill="#fff"/></svg>