<svg id="Layer_1" data-name="Layer 1" xmlns="http://www.w3.org/2000/svg" width="1.9in" height="1.6in" viewBox="0 0 137.7 113.2"><title>logo</title><path d="M81.7,9.5c26.4,4.7,36.9,10.4,34.9,14.6s-8.5,31.8-17.3,31.4S81.7,9.5,81.7,9.5Z" fill="#fff"/><path d="M112.5,42.6c-4.1,8.3-9.4,16.6-14.8,16-9.9-1.1-16.8-48.5-16.8-48.5,4,.9,7.7,1.9,11,2.8A24.3,24.3,0,0,0,79.4,8.4c-26.9,3.7-22.8,2.1-37.3,17.4-8,5.8-29.7,9.8-33,9.8s-4.5,6.2-.8,8.7c.8,4-2.7,27,28.2,18s33,7.3,36.9,33.8c1.2,6.5,1.6,10.8,1.6,10.8s37.1-12.9,54.1-25C123.2,69.5,118.1,55.3,112.5,42.6Z" fill="#fff"/></svg>