<svg height="1.6in" viewBox="0 0 137.7 113.2" width="1.9in" xmlns="http://www.w3.org/2000/svg"><g fill="#549b98"><ellipse cx="34.2" cy="49.4" rx="9.5" ry="12.7" transform="matrix(.96814764 -.25038 .25038 .96814764 -11.3 10.2)"/><ellipse cx="103" cy="49.4" rx="12.7" ry="9.5" transform="matrix(.44775909 -.89415424 .89415424 .44775909 12.7 119.5)"/><ellipse cx="83.2" cy="28.3" rx="15.3" ry="11.4" transform="matrix(.37622426 -.92652863 .92652863 .37622426 25.7 94.7)"/><ellipse cx="53.7" cy="29" rx="11.4" ry="15.3" transform="matrix(.93295353 -.35999681 .35999681 .93295353 -6.8 21.3)"/><path d="m47.8 64.4c6.6-7 20.3-33.7 37.8-3.8a14.4 14.4 0 0 0 1.8 2.5c5.6 6.2 7.6 8.1 8.7 9.4s11.6 27-14.6 24.2l-2.4-.5c-10.8-3.2-13.3-3-18.5-1.6s-28.2 8.2-23-15.6a10.9 10.9 0 0 1 .5-1.7c1-2.9.7-3.3 9.7-12.9z"/></g></svg>